<?xml version="1.0" standalone="no"?>
<svg xmlns="http://www.w3.org/2000/svg" viewBox="0 0 96 63" width="96" height="63"><g fill="#cd3434" color="#cd3434" transform="translate(30.261 0) scale(0.625) "><svg width="56.0" height="54.0" x="0.0" y="0.0" viewBox="0 0 56 54"><path fill="currentColor" fill-rule="evenodd" d="M20.14 11.806c.69 0 1.248.302 1.248.676 0 .373-.559.676-1.248.676-.69 0-1.248-.303-1.248-.676 0-.374.559-.676 1.248-.676m20.405 21.523l.534.01c5.6.225 9.9 4.467 9.9 10.137 0 0 .297 5.7-3.224 9.674-.285.323-.808.047-.72-.374.324-1.532.214-3.749-2.713-4.567-2.838-.792-5.67-.042-8.392.814-5.072 1.593-10.064 4.536-15.43 4.937-2.73.204-5.532-.369-7.9-1.742-4.398-2.548-6.242-7.656-6.572-12.497-.023-.334-.097-1.047.156-1.103.367-.077.692.66.855.874.337.445.72.855 1.141 1.221 2.783 2.425 6.471 2.177 9.853 1.42 3.721-.832 6.965-2.528 10.252-4.388 3.181-1.8 6.462-3.691 10.13-4.252.88-.135 1.774-.19 2.664-.154zm1.404 5.878c-1.67-.286-3.379-.148-5.01.232-1.627.412-3.168 1.058-4.6 1.858a29.406 29.406 0 0 0-4.054 2.738c1.534-.572 3.004-1.25 4.477-1.864 1.477-.602 2.954-1.16 4.47-1.518a16.128 16.128 0 0 1 4.608-.477 13.26 13.26 0 0 1 4.59 1.103c-1.223-1.096-2.818-1.798-4.481-2.072zM21.752 0c1.066 0 3.484 3.12 3.484 3.12S32.44 7.49 35.533 15.653c3.094 8.165-3.068 15.965-3.068 15.965a21.32 21.32 0 0 0 .759-4.477c.047-.834.038-1.671-.026-2.503-.022-.278-.138-.71-.229-1.134-.056-.262-.4-.307-.537-.077a4.679 4.679 0 0 1-1.004 1.177c-.049-1.565-.206-3.147-.744-4.618-.462-1.262-1.228-2.444-2.29-3.253a.252.252 0 0 0-.401.243 4.672 4.672 0 0 1-.116 2.121c-1.659-1.66-3.973-2.53-6.294-2.886-1.924-.295-3.877-.266-5.827-.224-.377.008-.494.51-.164.692 1.58.875 3.253 1.227 5.08 1.589 2.24.444 4.149 1.495 5.5 3.366 2.03 2.809 1.345 9.595.963 12.34a2.533 2.533 0 0 1-1.21 1.827c-2.498 1.493-5.553 2.77-9.429 3.567-1.91.392-3.986.347-5.839-.3-.903-.315-1.758-.85-2.29-1.646-.653-.976-.749-2.253-.45-3.389.3-1.136.96-2.146 1.717-3.044 2.322-2.753 5.518-4.529 8.224-6.853 1.123-.964 2.342-2.005 2.822-3.471.023-.068.295-1.26.084-1.267-3.207-.114-8.018-1.093-9.7-4.246-.1-.185-.188-.397-.136-.6.065-.257.325-.407.56-.528 2.168-1.113 4.257-2.135 6.102-3.767a19.55 19.55 0 0 0 2.2-2.29c.297-.364 1.429-1.346 1.39-1.83 0-.001-.494-6.137.572-6.137z"></path></svg></g><line x1="31.310000000000006" y1="39.75" x2="64.21000000000001" y2="39.75" stroke="#f30c0c" stroke-linecap="round"></line><path fill="#f30c0c" fill-rule="nonzero" d="M1.68 8.76L1.68 15.96L0 15.96L0 0.36L6.60 0.36L6.60 1.80L1.68 1.80L1.68 7.32L5.64 7.32L5.64 8.76L1.68 8.76ZM9.72 12.96L9.72 12.96L9.72 0.36L11.40 0.36L11.40 12.96Q11.40 13.87 11.80 14.38Q12.19 14.88 13.25 14.88Q14.30 14.88 15.19 14.06Q16.08 13.25 16.08 12.48L16.08 12.48L16.08 0.36L17.76 0.36L17.76 15.96L17.04 15.96L16.42 14.42Q15.89 15.29 15.06 15.80Q14.23 16.32 13.25 16.32L13.25 16.32Q9.72 16.32 9.72 12.96ZM24.24 4.99L24.24 15.96L22.56 15.96L22.56 0.36L23.28 0.36L23.98 2.14Q24.74 0 26.42 0L26.42 0Q29.28 0 29.28 3.12L29.28 3.12L29.28 4.68L27.67 4.68L27.67 3.02Q27.67 1.44 26.35 1.44L26.35 1.44Q25.56 1.44 24.90 2.35Q24.24 3.26 24.24 4.99L24.24 4.99ZM33.84 4.99L33.84 15.96L32.16 15.96L32.16 0.36L32.88 0.36L33.58 2.14Q34.34 0 36.02 0L36.02 0Q38.88 0 38.88 3.12L38.88 3.12L38.88 4.68L37.27 4.68L37.27 3.02Q37.27 1.44 35.95 1.44L35.95 1.44Q35.16 1.44 34.50 2.35Q33.84 3.26 33.84 4.99L33.84 4.99ZM41.76 15.96L41.76 0.36L45.38 0.36Q47.26 0.36 48.23 1.25Q49.20 2.14 49.20 3.72L49.20 3.72L49.20 5.16Q49.20 7.20 47.50 7.78L47.50 7.78Q49.44 8.30 49.44 10.44L49.44 10.44L49.44 12.60Q49.44 14.21 48.48 15.08Q47.52 15.96 45.62 15.96L45.62 15.96L41.76 15.96ZM47.76 12.60L47.76 12.60L47.76 10.44Q47.76 9.67 47.18 9.04Q46.61 8.40 45.62 8.40L45.62 8.40L43.44 8.40L43.44 14.52L45.62 14.52Q46.63 14.52 47.20 13.96Q47.76 13.39 47.76 12.60ZM47.52 5.16L47.52 5.16L47.52 3.72Q47.52 2.95 46.96 2.38Q46.39 1.80 45.38 1.80L45.38 1.80L43.44 1.80L43.44 7.20L45.38 7.20Q46.39 7.20 46.96 6.58Q47.52 5.95 47.52 5.16ZM61.32 3.36L61.32 15.96L60.60 15.96L59.98 14.42Q59.47 15.29 58.66 15.80Q57.84 16.32 56.86 16.32L56.86 16.32Q53.40 16.32 53.40 12.96L53.40 12.96L53.40 10.56Q53.40 7.20 56.86 7.20L56.86 7.20L59.64 7.20L59.64 3.26Q59.64 2.40 59.09 1.92Q58.54 1.44 57.46 1.44L57.46 1.44Q55.32 1.44 55.32 3.26L55.32 3.26L55.32 4.68L53.64 4.68L53.64 3.36Q53.64 1.75 54.59 0.88Q55.54 0 57.46 0Q59.38 0 60.35 0.88Q61.32 1.75 61.32 3.36L61.32 3.36ZM59.64 12.55L59.64 8.64L56.86 8.64Q55.85 8.64 55.46 9.14Q55.08 9.65 55.08 10.56L55.08 10.56L55.08 12.96Q55.08 13.87 55.46 14.38Q55.85 14.88 56.86 14.88Q57.86 14.88 58.73 14.10Q59.59 13.32 59.64 12.55L59.64 12.55ZM67.58 9.96L67.58 15.96L65.90 15.96L65.90 0.36L67.58 0.36L67.58 6.98L71.76 0.36L73.63 0.36L69.38 7.08L73.92 15.96L72.07 15.96L68.38 8.69L67.58 9.96ZM82.68 12.96L82.68 12.96L82.68 11.64L84.36 11.64L84.36 12.96Q84.36 14.57 83.38 15.44Q82.39 16.32 80.42 16.32Q78.46 16.32 77.45 15.44Q76.44 14.57 76.44 12.96L76.44 12.96L76.44 3.36Q76.44 1.75 77.42 0.88Q78.41 0 80.38 0Q82.34 0 83.35 0.88Q84.36 1.75 84.36 3.36L84.36 3.36L84.36 8.64L78.12 8.64L78.12 12.96Q78.12 14.88 80.40 14.88Q82.68 14.88 82.68 12.96ZM78.12 3.36L78.12 3.36L78.12 7.20L82.68 7.20L82.68 3.36Q82.68 1.44 80.40 1.44Q78.12 1.44 78.12 3.36ZM90.48 4.99L90.48 15.96L88.80 15.96L88.80 0.36L89.52 0.36L90.22 2.14Q90.98 0 92.66 0L92.66 0Q95.52 0 95.52 3.12L95.52 3.12L95.52 4.68L93.91 4.68L93.91 3.02Q93.91 1.44 92.59 1.44L92.59 1.44Q91.80 1.44 91.14 2.35Q90.48 3.26 90.48 4.99L90.48 4.99Z" transform="translate(0, 45.75)"></path></svg>